<?xml version="1.0" encoding="UTF-8" standalone="no"?>
<!DOCTYPE svg PUBLIC "-//W3C//DTD SVG 1.1//EN"
 "http://www.w3.org/Graphics/SVG/1.1/DTD/svg11.dtd">
<!-- Generated by graphviz version 2.36.0 (20140111.2315)
 -->
<!-- Title: FST Pages: 1 -->
<svg width="204pt" height="612pt"
 viewBox="0.00 0.00 612.00 204.06" xmlns="http://www.w3.org/2000/svg" xmlns:xlink="http://www.w3.org/1999/xlink">
<g id="graph0" class="graph" transform="scale(0.416327 0.416327) rotate(-90) translate(-1466 486.149)">
<title>FST</title>
<polygon fill="white" stroke="none" points="-4,4 -4,-486.149 1466,-486.149 1466,4 -4,4"/>
<!-- 0 -->
<g id="node1" class="node"><title>0</title>
<ellipse fill="none" stroke="black" stroke-width="2" cx="18" cy="-240.149" rx="18" ry="18"/>
<text text-anchor="middle" x="18" y="-236.449" font-family="Times,serif" font-size="14.00">0</text>
</g>
<!-- 1 -->
<g id="node2" class="node"><title>1</title>
<ellipse fill="none" stroke="black" cx="188" cy="-297.149" rx="18" ry="18"/>
<text text-anchor="middle" x="188" y="-293.449" font-family="Times,serif" font-size="14.00">1</text>
</g>
<!-- 0&#45;&gt;1 -->
<g id="edge1" class="edge"><title>0&#45;&gt;1</title>
<path fill="none" stroke="black" d="M34.8145,-247.464C39.932,-249.724 45.6639,-252.144 51,-254.149 88.6168,-268.279 133.188,-281.772 160.784,-289.759"/>
<polygon fill="black" stroke="black" points="159.902,-293.147 170.479,-292.54 161.832,-286.419 159.902,-293.147"/>
<text text-anchor="middle" x="103" y="-291.949" font-family="Times,serif" font-size="14.00">a:&lt;epsilon&gt;/1</text>
</g>
<!-- 2 -->
<g id="node3" class="node"><title>2</title>
<ellipse fill="none" stroke="black" cx="188" cy="-181.149" rx="18" ry="18"/>
<text text-anchor="middle" x="188" y="-177.449" font-family="Times,serif" font-size="14.00">2</text>
</g>
<!-- 0&#45;&gt;2 -->
<g id="edge2" class="edge"><title>0&#45;&gt;2</title>
<path fill="none" stroke="black" d="M30.6047,-226.899C36.2293,-221.25 43.4057,-215.07 51,-211.149 85.8609,-193.146 131.17,-185.913 159.676,-183.029"/>
<polygon fill="black" stroke="black" points="160.076,-186.507 169.721,-182.123 159.447,-179.535 160.076,-186.507"/>
<text text-anchor="middle" x="103" y="-214.949" font-family="Times,serif" font-size="14.00">&lt;epsilon&gt;:b/1</text>
</g>
<!-- 3 -->
<g id="node4" class="node"><title>3</title>
<ellipse fill="none" stroke="black" cx="358" cy="-240.149" rx="18" ry="18"/>
<text text-anchor="middle" x="358" y="-236.449" font-family="Times,serif" font-size="14.00">3</text>
</g>
<!-- 0&#45;&gt;3 -->
<g id="edge3" class="edge"><title>0&#45;&gt;3</title>
<path fill="none" stroke="black" d="M36.2262,-240.149C91.1497,-240.149 262.446,-240.149 329.6,-240.149"/>
<polygon fill="black" stroke="black" points="329.809,-243.649 339.809,-240.149 329.808,-236.649 329.809,-243.649"/>
<text text-anchor="middle" x="188" y="-243.949" font-family="Times,serif" font-size="14.00">a:b/1</text>
</g>
<!-- 1&#45;&gt;3 -->
<g id="edge5" class="edge"><title>1&#45;&gt;3</title>
<path fill="none" stroke="black" d="M202.265,-285.762C207.755,-281.561 214.379,-277.109 221,-274.149 264.217,-254.827 279.432,-263.975 325,-251.149 327.032,-250.577 329.124,-249.948 331.22,-249.291"/>
<polygon fill="black" stroke="black" points="332.442,-252.573 340.833,-246.105 330.24,-245.929 332.442,-252.573"/>
<text text-anchor="middle" x="273" y="-277.949" font-family="Times,serif" font-size="14.00">&lt;epsilon&gt;:b/1</text>
</g>
<!-- 4 -->
<g id="node5" class="node"><title>4</title>
<ellipse fill="none" stroke="black" cx="358" cy="-360.149" rx="18" ry="18"/>
<text text-anchor="middle" x="358" y="-356.449" font-family="Times,serif" font-size="14.00">4</text>
</g>
<!-- 1&#45;&gt;4 -->
<g id="edge4" class="edge"><title>1&#45;&gt;4</title>
<path fill="none" stroke="black" d="M203.221,-307.113C208.62,-310.604 214.933,-314.348 221,-317.149 257.484,-333.988 302.359,-346.756 330.329,-353.849"/>
<polygon fill="black" stroke="black" points="329.62,-357.279 340.168,-356.286 331.303,-350.484 329.62,-357.279"/>
<text text-anchor="middle" x="273" y="-355.949" font-family="Times,serif" font-size="14.00">b:&lt;epsilon&gt;/1</text>
</g>
<!-- 5 -->
<g id="node6" class="node"><title>5</title>
<ellipse fill="none" stroke="black" cx="533" cy="-303.149" rx="18" ry="18"/>
<text text-anchor="middle" x="533" y="-299.449" font-family="Times,serif" font-size="14.00">5</text>
</g>
<!-- 1&#45;&gt;5 -->
<g id="edge6" class="edge"><title>1&#45;&gt;5</title>
<path fill="none" stroke="black" d="M206.009,-297.446C261.326,-298.414 436.464,-301.477 504.551,-302.668"/>
<polygon fill="black" stroke="black" points="504.828,-306.174 514.888,-302.849 504.951,-299.175 504.828,-306.174"/>
<text text-anchor="middle" x="358" y="-304.949" font-family="Times,serif" font-size="14.00">b:b</text>
</g>
<!-- 2&#45;&gt;3 -->
<g id="edge7" class="edge"><title>2&#45;&gt;3</title>
<path fill="none" stroke="black" d="M205.852,-184.837C242.111,-192.777 324.33,-210.803 325,-211.149 329.509,-213.477 333.871,-216.602 337.848,-219.939"/>
<polygon fill="black" stroke="black" points="335.671,-222.692 345.395,-226.899 340.417,-217.547 335.671,-222.692"/>
<text text-anchor="middle" x="273" y="-214.949" font-family="Times,serif" font-size="14.00">a:&lt;epsilon&gt;/1</text>
</g>
<!-- 6 -->
<g id="node7" class="node"><title>6</title>
<ellipse fill="none" stroke="black" cx="358" cy="-119.149" rx="18" ry="18"/>
<text text-anchor="middle" x="358" y="-115.449" font-family="Times,serif" font-size="14.00">6</text>
</g>
<!-- 2&#45;&gt;6 -->
<g id="edge8" class="edge"><title>2&#45;&gt;6</title>
<path fill="none" stroke="black" d="M199.404,-167.03C205.066,-160.326 212.621,-152.785 221,-148.149 255.464,-129.077 301.24,-122.536 329.91,-120.299"/>
<polygon fill="black" stroke="black" points="330.252,-123.785 340.001,-119.636 329.793,-116.8 330.252,-123.785"/>
<text text-anchor="middle" x="273" y="-151.949" font-family="Times,serif" font-size="14.00">&lt;epsilon&gt;:a/1</text>
</g>
<!-- 7 -->
<g id="node8" class="node"><title>7</title>
<ellipse fill="none" stroke="black" cx="533" cy="-177.149" rx="18" ry="18"/>
<text text-anchor="middle" x="533" y="-173.449" font-family="Times,serif" font-size="14.00">7</text>
</g>
<!-- 2&#45;&gt;7 -->
<g id="edge9" class="edge"><title>2&#45;&gt;7</title>
<path fill="none" stroke="black" d="M206.009,-180.95C261.326,-180.305 436.464,-178.263 504.551,-177.469"/>
<polygon fill="black" stroke="black" points="504.929,-180.965 514.888,-177.348 504.848,-173.965 504.929,-180.965"/>
<text text-anchor="middle" x="358" y="-183.949" font-family="Times,serif" font-size="14.00">a:a</text>
</g>
<!-- 3&#45;&gt;5 -->
<g id="edge10" class="edge"><title>3&#45;&gt;5</title>
<path fill="none" stroke="black" d="M375.167,-246.105C380.201,-247.852 385.798,-249.684 391,-251.149 436.568,-263.975 452.194,-253.933 495,-274.149 500.768,-276.873 506.463,-280.636 511.591,-284.551"/>
<polygon fill="black" stroke="black" points="509.65,-287.486 519.601,-291.125 514.091,-282.075 509.65,-287.486"/>
<text text-anchor="middle" x="443" y="-277.949" font-family="Times,serif" font-size="14.00">b:&lt;epsilon&gt;/1</text>
</g>
<!-- 3&#45;&gt;7 -->
<g id="edge11" class="edge"><title>3&#45;&gt;7</title>
<path fill="none" stroke="black" d="M370.606,-226.901C376.231,-221.252 383.407,-215.072 391,-211.149 433.056,-189.416 449.172,-200.012 495,-188.149 498.479,-187.248 502.124,-186.242 505.713,-185.214"/>
<polygon fill="black" stroke="black" points="506.892,-188.516 515.494,-182.33 504.912,-181.802 506.892,-188.516"/>
<text text-anchor="middle" x="443" y="-214.949" font-family="Times,serif" font-size="14.00">&lt;epsilon&gt;:a/1</text>
</g>
<!-- 8 -->
<g id="node9" class="node"><title>8</title>
<ellipse fill="none" stroke="black" cx="713" cy="-240.149" rx="18" ry="18"/>
<text text-anchor="middle" x="713" y="-236.449" font-family="Times,serif" font-size="14.00">8</text>
</g>
<!-- 3&#45;&gt;8 -->
<g id="edge12" class="edge"><title>3&#45;&gt;8</title>
<path fill="none" stroke="black" d="M376.026,-240.149C432.631,-240.149 614.864,-240.149 684.55,-240.149"/>
<polygon fill="black" stroke="black" points="684.731,-243.649 694.731,-240.149 684.731,-236.649 684.731,-243.649"/>
<text text-anchor="middle" x="533" y="-243.949" font-family="Times,serif" font-size="14.00">b:a/1</text>
</g>
<!-- 4&#45;&gt;5 -->
<g id="edge14" class="edge"><title>4&#45;&gt;5</title>
<path fill="none" stroke="black" d="M372.265,-348.762C377.755,-344.561 384.379,-340.109 391,-337.149 434.217,-317.827 449.172,-326.012 495,-314.149 498.479,-313.248 502.124,-312.242 505.713,-311.214"/>
<polygon fill="black" stroke="black" points="506.892,-314.516 515.494,-308.33 504.912,-307.802 506.892,-314.516"/>
<text text-anchor="middle" x="443" y="-340.949" font-family="Times,serif" font-size="14.00">&lt;epsilon&gt;:b/1</text>
</g>
<!-- 9 -->
<g id="node10" class="node"><title>9</title>
<ellipse fill="none" stroke="black" cx="533" cy="-427.149" rx="18" ry="18"/>
<text text-anchor="middle" x="533" y="-423.449" font-family="Times,serif" font-size="14.00">9</text>
</g>
<!-- 4&#45;&gt;9 -->
<g id="edge13" class="edge"><title>4&#45;&gt;9</title>
<path fill="none" stroke="black" d="M373.245,-370.062C378.647,-373.548 384.955,-377.301 391,-380.149 429.462,-398.264 476.823,-412.53 505.695,-420.398"/>
<polygon fill="black" stroke="black" points="504.88,-423.803 515.444,-423.002 506.686,-417.04 504.88,-423.803"/>
<text text-anchor="middle" x="443" y="-420.949" font-family="Times,serif" font-size="14.00">b:&lt;epsilon&gt;/1</text>
</g>
<!-- 10 -->
<g id="node11" class="node"><title>10</title>
<ellipse fill="none" stroke="black" cx="713" cy="-366.149" rx="22.9987" ry="22.9987"/>
<text text-anchor="middle" x="713" y="-362.449" font-family="Times,serif" font-size="14.00">10</text>
</g>
<!-- 4&#45;&gt;10 -->
<g id="edge15" class="edge"><title>4&#45;&gt;10</title>
<path fill="none" stroke="black" d="M376.026,-360.438C431.306,-361.378 606.405,-364.354 679.476,-365.596"/>
<polygon fill="black" stroke="black" points="679.835,-369.102 689.893,-365.773 679.954,-362.103 679.835,-369.102"/>
<text text-anchor="middle" x="533" y="-367.949" font-family="Times,serif" font-size="14.00">b:b</text>
</g>
<!-- 5&#45;&gt;8 -->
<g id="edge17" class="edge"><title>5&#45;&gt;8</title>
<path fill="none" stroke="black" d="M546.399,-291.125C553.171,-285.186 561.996,-278.401 571,-274.149 613.806,-253.933 629.172,-263.012 675,-251.149 678.479,-250.248 682.124,-249.242 685.713,-248.214"/>
<polygon fill="black" stroke="black" points="686.892,-251.516 695.494,-245.33 684.912,-244.802 686.892,-251.516"/>
<text text-anchor="middle" x="623" y="-277.949" font-family="Times,serif" font-size="14.00">&lt;epsilon&gt;:a/1</text>
</g>
<!-- 5&#45;&gt;10 -->
<g id="edge16" class="edge"><title>5&#45;&gt;10</title>
<path fill="none" stroke="black" d="M550.506,-308.33C556.881,-310.259 564.253,-312.402 571,-314.149 616.828,-326.012 632.194,-316.933 675,-337.149 679.469,-339.259 683.895,-341.994 688.047,-344.94"/>
<polygon fill="black" stroke="black" points="686.054,-347.823 696.113,-351.151 690.325,-342.277 686.054,-347.823"/>
<text text-anchor="middle" x="623" y="-340.949" font-family="Times,serif" font-size="14.00">b:&lt;epsilon&gt;/1</text>
</g>
<!-- 11 -->
<g id="node12" class="node"><title>11</title>
<ellipse fill="none" stroke="black" cx="893" cy="-303.149" rx="22.9987" ry="22.9987"/>
<text text-anchor="middle" x="893" y="-299.449" font-family="Times,serif" font-size="14.00">11</text>
</g>
<!-- 5&#45;&gt;11 -->
<g id="edge18" class="edge"><title>5&#45;&gt;11</title>
<path fill="none" stroke="black" d="M551.267,-303.149C607.579,-303.149 786.484,-303.149 859.994,-303.149"/>
<polygon fill="black" stroke="black" points="860.048,-306.649 870.048,-303.149 860.048,-299.649 860.048,-306.649"/>
<text text-anchor="middle" x="713" y="-306.949" font-family="Times,serif" font-size="14.00">b:a/1</text>
</g>
<!-- 6&#45;&gt;7 -->
<g id="edge19" class="edge"><title>6&#45;&gt;7</title>
<path fill="none" stroke="black" d="M375.884,-122.306C409.878,-128.727 484.257,-143.125 495,-148.149 500.778,-150.851 506.477,-154.606 511.606,-158.519"/>
<polygon fill="black" stroke="black" points="509.665,-161.454 519.614,-165.097 514.108,-156.045 509.665,-161.454"/>
<text text-anchor="middle" x="443" y="-151.949" font-family="Times,serif" font-size="14.00">a:&lt;epsilon&gt;/1</text>
</g>
<!-- 12 -->
<g id="node13" class="node"><title>12</title>
<ellipse fill="none" stroke="black" cx="533" cy="-51.1486" rx="22.9987" ry="22.9987"/>
<text text-anchor="middle" x="533" y="-47.4486" font-family="Times,serif" font-size="14.00">12</text>
</g>
<!-- 6&#45;&gt;12 -->
<g id="edge20" class="edge"><title>6&#45;&gt;12</title>
<path fill="none" stroke="black" d="M369.376,-104.693C375.032,-97.8097 382.588,-90.0337 391,-85.1486 424.938,-65.4385 469.816,-57.1257 499.733,-53.6382"/>
<polygon fill="black" stroke="black" points="500.449,-57.0824 510.03,-52.5594 499.719,-50.1205 500.449,-57.0824"/>
<text text-anchor="middle" x="443" y="-88.9486" font-family="Times,serif" font-size="14.00">&lt;epsilon&gt;:b/1</text>
</g>
<!-- 13 -->
<g id="node14" class="node"><title>13</title>
<ellipse fill="none" stroke="black" cx="713" cy="-114.149" rx="22.9987" ry="22.9987"/>
<text text-anchor="middle" x="713" y="-110.449" font-family="Times,serif" font-size="14.00">13</text>
</g>
<!-- 6&#45;&gt;13 -->
<g id="edge21" class="edge"><title>6&#45;&gt;13</title>
<path fill="none" stroke="black" d="M376.026,-118.907C431.306,-118.124 606.405,-115.644 679.476,-114.609"/>
<polygon fill="black" stroke="black" points="679.944,-118.103 689.893,-114.462 679.845,-111.104 679.944,-118.103"/>
<text text-anchor="middle" x="533" y="-120.949" font-family="Times,serif" font-size="14.00">a:b/1</text>
</g>
<!-- 7&#45;&gt;8 -->
<g id="edge22" class="edge"><title>7&#45;&gt;8</title>
<path fill="none" stroke="black" d="M550.506,-182.33C556.881,-184.259 564.253,-186.402 571,-188.149 616.828,-200.012 632.194,-190.933 675,-211.149 680.768,-213.873 686.463,-217.636 691.591,-221.551"/>
<polygon fill="black" stroke="black" points="689.65,-224.486 699.601,-228.125 694.091,-219.075 689.65,-224.486"/>
<text text-anchor="middle" x="623" y="-214.949" font-family="Times,serif" font-size="14.00">b:&lt;epsilon&gt;/1</text>
</g>
<!-- 7&#45;&gt;13 -->
<g id="edge23" class="edge"><title>7&#45;&gt;13</title>
<path fill="none" stroke="black" d="M546.399,-165.125C553.171,-159.186 561.996,-152.401 571,-148.149 613.806,-127.933 629.172,-137.012 675,-125.149 677.027,-124.624 679.111,-124.063 681.207,-123.483"/>
<polygon fill="black" stroke="black" points="682.293,-126.813 690.941,-120.692 680.364,-120.084 682.293,-126.813"/>
<text text-anchor="middle" x="623" y="-151.949" font-family="Times,serif" font-size="14.00">&lt;epsilon&gt;:b/1</text>
</g>
<!-- 14 -->
<g id="node15" class="node"><title>14</title>
<ellipse fill="none" stroke="black" cx="893" cy="-177.149" rx="22.9987" ry="22.9987"/>
<text text-anchor="middle" x="893" y="-173.449" font-family="Times,serif" font-size="14.00">14</text>
</g>
<!-- 7&#45;&gt;14 -->
<g id="edge24" class="edge"><title>7&#45;&gt;14</title>
<path fill="none" stroke="black" d="M551.267,-177.149C607.579,-177.149 786.484,-177.149 859.994,-177.149"/>
<polygon fill="black" stroke="black" points="860.048,-180.649 870.048,-177.149 860.048,-173.649 860.048,-180.649"/>
<text text-anchor="middle" x="713" y="-180.949" font-family="Times,serif" font-size="14.00">b:b</text>
</g>
<!-- 8&#45;&gt;11 -->
<g id="edge25" class="edge"><title>8&#45;&gt;11</title>
<path fill="none" stroke="black" d="M730.506,-245.33C736.881,-247.259 744.253,-249.402 751,-251.149 796.828,-263.012 812.194,-253.933 855,-274.149 859.469,-276.259 863.895,-278.994 868.047,-281.94"/>
<polygon fill="black" stroke="black" points="866.054,-284.823 876.113,-288.151 870.325,-279.277 866.054,-284.823"/>
<text text-anchor="middle" x="803" y="-277.949" font-family="Times,serif" font-size="14.00">b:&lt;epsilon&gt;/1</text>
</g>
<!-- 8&#45;&gt;14 -->
<g id="edge26" class="edge"><title>8&#45;&gt;14</title>
<path fill="none" stroke="black" d="M726.399,-228.125C733.171,-222.186 741.996,-215.401 751,-211.149 793.806,-190.933 809.172,-200.012 855,-188.149 857.027,-187.624 859.111,-187.063 861.207,-186.483"/>
<polygon fill="black" stroke="black" points="862.293,-189.813 870.941,-183.692 860.364,-183.084 862.293,-189.813"/>
<text text-anchor="middle" x="803" y="-214.949" font-family="Times,serif" font-size="14.00">&lt;epsilon&gt;:b/1</text>
</g>
<!-- 15 -->
<g id="node16" class="node"><title>15</title>
<ellipse fill="none" stroke="black" cx="1073" cy="-240.149" rx="22.9987" ry="22.9987"/>
<text text-anchor="middle" x="1073" y="-236.449" font-family="Times,serif" font-size="14.00">15</text>
</g>
<!-- 8&#45;&gt;15 -->
<g id="edge27" class="edge"><title>8&#45;&gt;15</title>
<path fill="none" stroke="black" d="M731.267,-240.149C787.579,-240.149 966.484,-240.149 1039.99,-240.149"/>
<polygon fill="black" stroke="black" points="1040.05,-243.649 1050.05,-240.149 1040.05,-236.649 1040.05,-243.649"/>
<text text-anchor="middle" x="893" y="-243.949" font-family="Times,serif" font-size="14.00">b:b</text>
</g>
<!-- 9&#45;&gt;10 -->
<g id="edge29" class="edge"><title>9&#45;&gt;10</title>
<path fill="none" stroke="black" d="M549.654,-419.417C556.174,-416.338 563.873,-412.885 571,-410.149 581.438,-406.141 643.102,-387.17 681.346,-375.486"/>
<polygon fill="black" stroke="black" points="682.442,-378.811 690.984,-372.544 680.398,-372.116 682.442,-378.811"/>
<text text-anchor="middle" x="623" y="-413.949" font-family="Times,serif" font-size="14.00">&lt;epsilon&gt;:b/1</text>
</g>
<!-- 16 -->
<g id="node17" class="node"><title>16</title>
<ellipse fill="none" stroke="black" cx="713" cy="-433.149" rx="22.9987" ry="22.9987"/>
<text text-anchor="middle" x="713" y="-429.449" font-family="Times,serif" font-size="14.00">16</text>
</g>
<!-- 9&#45;&gt;16 -->
<g id="edge28" class="edge"><title>9&#45;&gt;16</title>
<path fill="none" stroke="black" d="M551.067,-427.724C580.608,-428.72 641.729,-430.78 679.562,-432.055"/>
<polygon fill="black" stroke="black" points="679.921,-435.569 690.033,-432.408 680.157,-428.573 679.921,-435.569"/>
<text text-anchor="middle" x="623" y="-435.949" font-family="Times,serif" font-size="14.00">a:&lt;epsilon&gt;/1</text>
</g>
<!-- 17 -->
<g id="node18" class="node"><title>17</title>
<ellipse fill="none" stroke="black" cx="893" cy="-429.149" rx="22.9987" ry="22.9987"/>
<text text-anchor="middle" x="893" y="-425.449" font-family="Times,serif" font-size="14.00">17</text>
</g>
<!-- 9&#45;&gt;17 -->
<g id="edge30" class="edge"><title>9&#45;&gt;17</title>
<path fill="none" stroke="black" d="M547.587,-438.158C554.252,-442.962 562.633,-448.169 571,-451.149 621.12,-468.998 636.875,-461.255 690,-464.149 763.418,-468.147 785.401,-475.859 855,-452.149 858.575,-450.931 862.164,-449.313 865.624,-447.497"/>
<polygon fill="black" stroke="black" points="867.524,-450.44 874.387,-442.369 863.989,-444.399 867.524,-450.44"/>
<text text-anchor="middle" x="713" y="-470.949" font-family="Times,serif" font-size="14.00">a:b/1</text>
</g>
<!-- 10&#45;&gt;11 -->
<g id="edge32" class="edge"><title>10&#45;&gt;11</title>
<path fill="none" stroke="black" d="M729.887,-351.151C736.07,-346.03 743.472,-340.704 751,-337.149 793.806,-316.933 809.172,-326.012 855,-314.149 857.027,-313.624 859.111,-313.063 861.207,-312.483"/>
<polygon fill="black" stroke="black" points="862.293,-315.813 870.941,-309.692 860.364,-309.084 862.293,-315.813"/>
<text text-anchor="middle" x="803" y="-340.949" font-family="Times,serif" font-size="14.00">&lt;epsilon&gt;:a/1</text>
</g>
<!-- 10&#45;&gt;17 -->
<g id="edge31" class="edge"><title>10&#45;&gt;17</title>
<path fill="none" stroke="black" d="M734.885,-372.41C768.435,-382.536 832.815,-402.266 855,-411.149 857.736,-412.244 860.55,-413.454 863.347,-414.712"/>
<polygon fill="black" stroke="black" points="862.111,-417.999 872.65,-419.086 865.09,-411.664 862.111,-417.999"/>
<text text-anchor="middle" x="803" y="-414.949" font-family="Times,serif" font-size="14.00">a:&lt;epsilon&gt;/1</text>
</g>
<!-- 18 -->
<g id="node19" class="node"><title>18</title>
<ellipse fill="none" stroke="black" cx="1073" cy="-362.149" rx="22.9987" ry="22.9987"/>
<text text-anchor="middle" x="1073" y="-358.449" font-family="Times,serif" font-size="14.00">18</text>
</g>
<!-- 10&#45;&gt;18 -->
<g id="edge33" class="edge"><title>10&#45;&gt;18</title>
<path fill="none" stroke="black" d="M735.856,-365.904C796.647,-365.225 967.968,-363.311 1039.74,-362.509"/>
<polygon fill="black" stroke="black" points="1040.02,-366.006 1049.98,-362.395 1039.94,-359.007 1040.02,-366.006"/>
<text text-anchor="middle" x="893" y="-368.949" font-family="Times,serif" font-size="14.00">a:a</text>
</g>
<!-- 11&#45;&gt;15 -->
<g id="edge35" class="edge"><title>11&#45;&gt;15</title>
<path fill="none" stroke="black" d="M909.887,-288.151C916.07,-283.03 923.472,-277.704 931,-274.149 973.806,-253.933 989.172,-263.012 1035,-251.149 1037.03,-250.624 1039.11,-250.063 1041.21,-249.483"/>
<polygon fill="black" stroke="black" points="1042.29,-252.813 1050.94,-246.692 1040.36,-246.084 1042.29,-252.813"/>
<text text-anchor="middle" x="983" y="-277.949" font-family="Times,serif" font-size="14.00">&lt;epsilon&gt;:b/1</text>
</g>
<!-- 11&#45;&gt;18 -->
<g id="edge34" class="edge"><title>11&#45;&gt;18</title>
<path fill="none" stroke="black" d="M915.059,-309.692C920.25,-311.227 925.81,-312.805 931,-314.149 976.828,-326.012 991.508,-318.456 1035,-337.149 1038.74,-338.756 1042.5,-340.755 1046.12,-342.918"/>
<polygon fill="black" stroke="black" points="1044.43,-345.993 1054.72,-348.503 1048.24,-340.122 1044.43,-345.993"/>
<text text-anchor="middle" x="983" y="-340.949" font-family="Times,serif" font-size="14.00">a:&lt;epsilon&gt;/1</text>
</g>
<!-- 19 -->
<g id="node20" class="node"><title>19</title>
<ellipse fill="none" stroke="black" cx="1253" cy="-299.149" rx="22.9987" ry="22.9987"/>
<text text-anchor="middle" x="1253" y="-295.449" font-family="Times,serif" font-size="14.00">19</text>
</g>
<!-- 11&#45;&gt;19 -->
<g id="edge36" class="edge"><title>11&#45;&gt;19</title>
<path fill="none" stroke="black" d="M915.856,-302.904C976.647,-302.225 1147.97,-300.311 1219.74,-299.509"/>
<polygon fill="black" stroke="black" points="1220.02,-303.006 1229.98,-299.395 1219.94,-296.007 1220.02,-303.006"/>
<text text-anchor="middle" x="1073" y="-305.949" font-family="Times,serif" font-size="14.00">a:b/1</text>
</g>
<!-- 12&#45;&gt;13 -->
<g id="edge37" class="edge"><title>12&#45;&gt;13</title>
<path fill="none" stroke="black" d="M555.059,-57.6922C560.25,-59.227 565.81,-60.805 571,-62.1486 616.828,-74.0124 632.194,-64.9331 675,-85.1486 679.469,-87.2594 683.895,-89.9945 688.047,-92.9404"/>
<polygon fill="black" stroke="black" points="686.054,-95.8231 696.113,-99.1508 690.325,-90.2768 686.054,-95.8231"/>
<text text-anchor="middle" x="623" y="-88.9486" font-family="Times,serif" font-size="14.00">a:&lt;epsilon&gt;/1</text>
</g>
<!-- 20 -->
<g id="node21" class="node"><title>20</title>
<ellipse fill="none" stroke="black" cx="713" cy="-49.1486" rx="22.9987" ry="22.9987"/>
<text text-anchor="middle" x="713" y="-45.4486" font-family="Times,serif" font-size="14.00">20</text>
</g>
<!-- 12&#45;&gt;20 -->
<g id="edge38" class="edge"><title>12&#45;&gt;20</title>
<path fill="none" stroke="black" d="M555.881,-48.3889C560.844,-47.8728 566.097,-47.4129 571,-47.1486 617.155,-44.661 628.795,-45.9007 675,-47.1486 676.527,-47.1899 678.09,-47.2407 679.667,-47.2989"/>
<polygon fill="black" stroke="black" points="679.948,-50.815 690.095,-47.7685 680.263,-43.8221 679.948,-50.815"/>
<text text-anchor="middle" x="623" y="-50.9486" font-family="Times,serif" font-size="14.00">&lt;epsilon&gt;:a/1</text>
</g>
<!-- 21 -->
<g id="node22" class="node"><title>21</title>
<ellipse fill="none" stroke="black" cx="893" cy="-51.1486" rx="22.9987" ry="22.9987"/>
<text text-anchor="middle" x="893" y="-47.4486" font-family="Times,serif" font-size="14.00">21</text>
</g>
<!-- 12&#45;&gt;21 -->
<g id="edge39" class="edge"><title>12&#45;&gt;21</title>
<path fill="none" stroke="black" d="M554.218,-42.6069C583.516,-30.7387 639.773,-9.85135 690,-2.14862 752.642,7.45797 824.4,-19.1753 863.288,-36.8479"/>
<polygon fill="black" stroke="black" points="861.899,-40.062 872.441,-41.1203 864.86,-33.719 861.899,-40.062"/>
<text text-anchor="middle" x="713" y="-5.94862" font-family="Times,serif" font-size="14.00">a:a</text>
</g>
<!-- 13&#45;&gt;14 -->
<g id="edge40" class="edge"><title>13&#45;&gt;14</title>
<path fill="none" stroke="black" d="M735.059,-120.692C740.25,-122.227 745.81,-123.805 751,-125.149 796.828,-137.012 812.194,-127.933 855,-148.149 859.469,-150.259 863.895,-152.994 868.047,-155.94"/>
<polygon fill="black" stroke="black" points="866.054,-158.823 876.113,-162.151 870.325,-153.277 866.054,-158.823"/>
<text text-anchor="middle" x="803" y="-151.949" font-family="Times,serif" font-size="14.00">b:&lt;epsilon&gt;/1</text>
</g>
<!-- 13&#45;&gt;21 -->
<g id="edge41" class="edge"><title>13&#45;&gt;21</title>
<path fill="none" stroke="black" d="M729.887,-99.1508C736.07,-94.0295 743.472,-88.7036 751,-85.1486 793.806,-64.9331 809.172,-74.0124 855,-62.1486 857.027,-61.6238 859.111,-61.0632 861.207,-60.4833"/>
<polygon fill="black" stroke="black" points="862.293,-63.8131 870.941,-57.6922 860.364,-57.0843 862.293,-63.8131"/>
<text text-anchor="middle" x="803" y="-88.9486" font-family="Times,serif" font-size="14.00">&lt;epsilon&gt;:a/1</text>
</g>
<!-- 22 -->
<g id="node23" class="node"><title>22</title>
<ellipse fill="none" stroke="black" cx="1073" cy="-116.149" rx="22.9987" ry="22.9987"/>
<text text-anchor="middle" x="1073" y="-112.449" font-family="Times,serif" font-size="14.00">22</text>
</g>
<!-- 13&#45;&gt;22 -->
<g id="edge42" class="edge"><title>13&#45;&gt;22</title>
<path fill="none" stroke="black" d="M735.856,-114.271C796.647,-114.61 967.968,-115.567 1039.74,-115.968"/>
<polygon fill="black" stroke="black" points="1039.96,-119.47 1049.98,-116.026 1040,-112.47 1039.96,-119.47"/>
<text text-anchor="middle" x="893" y="-119.949" font-family="Times,serif" font-size="14.00">b:a/1</text>
</g>
<!-- 14&#45;&gt;15 -->
<g id="edge43" class="edge"><title>14&#45;&gt;15</title>
<path fill="none" stroke="black" d="M915.059,-183.692C920.25,-185.227 925.81,-186.805 931,-188.149 976.828,-200.012 992.194,-190.933 1035,-211.149 1039.47,-213.259 1043.9,-215.994 1048.05,-218.94"/>
<polygon fill="black" stroke="black" points="1046.05,-221.823 1056.11,-225.151 1050.32,-216.277 1046.05,-221.823"/>
<text text-anchor="middle" x="983" y="-214.949" font-family="Times,serif" font-size="14.00">b:&lt;epsilon&gt;/1</text>
</g>
<!-- 14&#45;&gt;22 -->
<g id="edge44" class="edge"><title>14&#45;&gt;22</title>
<path fill="none" stroke="black" d="M909.887,-162.151C916.07,-157.03 923.472,-151.704 931,-148.149 973.806,-127.933 988.887,-135.855 1035,-125.149 1036.88,-124.711 1038.82,-124.256 1040.77,-123.794"/>
<polygon fill="black" stroke="black" points="1041.59,-127.197 1050.5,-121.46 1039.96,-120.39 1041.59,-127.197"/>
<text text-anchor="middle" x="983" y="-151.949" font-family="Times,serif" font-size="14.00">&lt;epsilon&gt;:a/1</text>
</g>
<!-- 23 -->
<g id="node24" class="node"><title>23</title>
<ellipse fill="none" stroke="black" cx="1253" cy="-179.149" rx="22.9987" ry="22.9987"/>
<text text-anchor="middle" x="1253" y="-175.449" font-family="Times,serif" font-size="14.00">23</text>
</g>
<!-- 14&#45;&gt;23 -->
<g id="edge45" class="edge"><title>14&#45;&gt;23</title>
<path fill="none" stroke="black" d="M915.856,-177.271C976.647,-177.61 1147.97,-178.567 1219.74,-178.968"/>
<polygon fill="black" stroke="black" points="1219.96,-182.47 1229.98,-179.026 1220,-175.47 1219.96,-182.47"/>
<text text-anchor="middle" x="1073" y="-182.949" font-family="Times,serif" font-size="14.00">b:a/1</text>
</g>
<!-- 15&#45;&gt;19 -->
<g id="edge46" class="edge"><title>15&#45;&gt;19</title>
<path fill="none" stroke="black" d="M1095.06,-246.692C1100.25,-248.227 1105.81,-249.805 1111,-251.149 1156.83,-263.012 1171.51,-255.456 1215,-274.149 1218.74,-275.756 1222.5,-277.755 1226.12,-279.918"/>
<polygon fill="black" stroke="black" points="1224.43,-282.993 1234.72,-285.503 1228.24,-277.122 1224.43,-282.993"/>
<text text-anchor="middle" x="1163" y="-277.949" font-family="Times,serif" font-size="14.00">a:&lt;epsilon&gt;/1</text>
</g>
<!-- 15&#45;&gt;23 -->
<g id="edge47" class="edge"><title>15&#45;&gt;23</title>
<path fill="none" stroke="black" d="M1089.89,-225.151C1096.07,-220.03 1103.47,-214.704 1111,-211.149 1153.81,-190.933 1168.89,-198.855 1215,-188.149 1216.88,-187.711 1218.82,-187.256 1220.77,-186.794"/>
<polygon fill="black" stroke="black" points="1221.59,-190.197 1230.5,-184.46 1219.96,-183.39 1221.59,-190.197"/>
<text text-anchor="middle" x="1163" y="-214.949" font-family="Times,serif" font-size="14.00">&lt;epsilon&gt;:a/1</text>
</g>
<!-- 24 -->
<g id="node25" class="node"><title>24</title>
<ellipse fill="none" stroke="black" cx="1435" cy="-240.149" rx="22.9609" ry="22.9609"/>
<ellipse fill="none" stroke="black" cx="1435" cy="-240.149" rx="26.9983" ry="26.9983"/>
<text text-anchor="middle" x="1435" y="-236.449" font-family="Times,serif" font-size="14.00">24</text>
</g>
<!-- 15&#45;&gt;24 -->
<g id="edge48" class="edge"><title>15&#45;&gt;24</title>
<path fill="none" stroke="black" d="M1095.98,-240.149C1156.07,-240.149 1323.57,-240.149 1397.79,-240.149"/>
<polygon fill="black" stroke="black" points="1398.05,-243.649 1408.05,-240.149 1398.05,-236.649 1398.05,-243.649"/>
<text text-anchor="middle" x="1253" y="-243.949" font-family="Times,serif" font-size="14.00">a:a</text>
</g>
<!-- 16&#45;&gt;17 -->
<g id="edge49" class="edge"><title>16&#45;&gt;17</title>
<path fill="none" stroke="black" d="M735.826,-432.658C766.787,-431.962 823.675,-430.684 859.578,-429.877"/>
<polygon fill="black" stroke="black" points="860.076,-433.367 869.995,-429.643 859.919,-426.369 860.076,-433.367"/>
<text text-anchor="middle" x="803" y="-436.949" font-family="Times,serif" font-size="14.00">&lt;epsilon&gt;:b/1</text>
</g>
<!-- 17&#45;&gt;18 -->
<g id="edge50" class="edge"><title>17&#45;&gt;18</title>
<path fill="none" stroke="black" d="M914.836,-422.76C942.606,-414.053 993.117,-397.543 1035,-380.149 1037.72,-379.018 1040.53,-377.785 1043.32,-376.511"/>
<polygon fill="black" stroke="black" points="1045.07,-379.555 1052.61,-372.115 1042.07,-373.227 1045.07,-379.555"/>
<text text-anchor="middle" x="983" y="-421.949" font-family="Times,serif" font-size="14.00">&lt;epsilon&gt;:a/1</text>
</g>
<!-- 18&#45;&gt;19 -->
<g id="edge51" class="edge"><title>18&#45;&gt;19</title>
<path fill="none" stroke="black" d="M1095.36,-356.371C1123.27,-348.584 1173.49,-333.768 1215,-317.149 1217.74,-316.053 1220.55,-314.844 1223.35,-313.585"/>
<polygon fill="black" stroke="black" points="1225.09,-316.633 1232.65,-309.211 1222.11,-310.299 1225.09,-316.633"/>
<text text-anchor="middle" x="1163" y="-355.949" font-family="Times,serif" font-size="14.00">&lt;epsilon&gt;:b/1</text>
</g>
<!-- 19&#45;&gt;24 -->
<g id="edge52" class="edge"><title>19&#45;&gt;24</title>
<path fill="none" stroke="black" d="M1274.76,-292.543C1301.96,-283.86 1351.12,-268.077 1393,-254.149 1395.23,-253.408 1397.52,-252.639 1399.83,-251.861"/>
<polygon fill="black" stroke="black" points="1400.96,-255.176 1409.31,-248.652 1398.71,-248.546 1400.96,-255.176"/>
<text text-anchor="middle" x="1342" y="-291.949" font-family="Times,serif" font-size="14.00">&lt;epsilon&gt;:a/1</text>
</g>
<!-- 20&#45;&gt;21 -->
<g id="edge53" class="edge"><title>20&#45;&gt;21</title>
<path fill="none" stroke="black" d="M735.905,-47.7685C740.866,-47.5105 746.113,-47.2806 751,-47.1486 797.205,-45.9007 808.845,-44.661 855,-47.1486 856.686,-47.2395 858.412,-47.3534 860.154,-47.4848"/>
<polygon fill="black" stroke="black" points="859.844,-50.9709 870.119,-48.3889 860.476,-43.9996 859.844,-50.9709"/>
<text text-anchor="middle" x="803" y="-50.9486" font-family="Times,serif" font-size="14.00">a:&lt;epsilon&gt;/1</text>
</g>
<!-- 21&#45;&gt;22 -->
<g id="edge54" class="edge"><title>21&#45;&gt;22</title>
<path fill="none" stroke="black" d="M916.09,-53.3074C944.798,-56.8046 995.877,-65.4227 1035,-85.1486 1039.74,-87.5397 1044.4,-90.6467 1048.73,-93.9687"/>
<polygon fill="black" stroke="black" points="1046.66,-96.7945 1056.59,-100.49 1051.13,-91.4091 1046.66,-96.7945"/>
<text text-anchor="middle" x="983" y="-88.9486" font-family="Times,serif" font-size="14.00">b:&lt;epsilon&gt;/1</text>
</g>
<!-- 22&#45;&gt;23 -->
<g id="edge55" class="edge"><title>22&#45;&gt;23</title>
<path fill="none" stroke="black" d="M1096.09,-117.923C1124.79,-120.936 1175.87,-128.747 1215,-148.149 1219.76,-150.508 1224.43,-153.599 1228.76,-156.914"/>
<polygon fill="black" stroke="black" points="1226.69,-159.74 1236.62,-163.435 1231.16,-154.354 1226.69,-159.74"/>
<text text-anchor="middle" x="1163" y="-151.949" font-family="Times,serif" font-size="14.00">b:&lt;epsilon&gt;/1</text>
</g>
<!-- 23&#45;&gt;24 -->
<g id="edge56" class="edge"><title>23&#45;&gt;24</title>
<path fill="none" stroke="black" d="M1276.03,-181.538C1304.17,-185.184 1353.9,-193.643 1393,-211.149 1397.14,-213.002 1401.29,-215.3 1405.28,-217.786"/>
<polygon fill="black" stroke="black" points="1403.42,-220.755 1413.67,-223.426 1407.32,-214.944 1403.42,-220.755"/>
<text text-anchor="middle" x="1342" y="-214.949" font-family="Times,serif" font-size="14.00">a:&lt;epsilon&gt;/1</text>
</g>
</g>
</svg>
