<?xml version="1.0" encoding="UTF-8" standalone="no"?>
<!DOCTYPE svg PUBLIC "-//W3C//DTD SVG 1.1//EN"
 "http://www.w3.org/Graphics/SVG/1.1/DTD/svg11.dtd">
<!-- Generated by graphviz version 2.36.0 (20140111.2315)
 -->
<!-- Title: FST Pages: 1 -->
<svg width="122pt" height="612pt"
 viewBox="0.00 0.00 612.00 122.07" xmlns="http://www.w3.org/2000/svg" xmlns:xlink="http://www.w3.org/1999/xlink">
<g id="graph0" class="graph" transform="scale(0.81383 0.81383) rotate(-90) translate(-748 146)">
<title>FST</title>
<polygon fill="white" stroke="none" points="-4,4 -4,-146 748,-146 748,4 -4,4"/>
<!-- 0 -->
<g id="node1" class="node"><title>0</title>
<ellipse fill="none" stroke="black" stroke-width="2" cx="18" cy="-72" rx="18" ry="18"/>
<text text-anchor="middle" x="18" y="-68.3" font-family="Times,serif" font-size="14.00">0</text>
</g>
<!-- 1 -->
<g id="node2" class="node"><title>1</title>
<ellipse fill="none" stroke="black" cx="188" cy="-72" rx="18" ry="18"/>
<text text-anchor="middle" x="188" y="-68.3" font-family="Times,serif" font-size="14.00">1</text>
</g>
<!-- 0&#45;&gt;1 -->
<g id="edge1" class="edge"><title>0&#45;&gt;1</title>
<path fill="none" stroke="black" d="M36.0333,-72C65.0885,-72 124.477,-72 159.482,-72"/>
<polygon fill="black" stroke="black" points="159.922,-75.5001 169.922,-72 159.922,-68.5001 159.922,-75.5001"/>
<text text-anchor="middle" x="103" y="-75.8" font-family="Times,serif" font-size="14.00">a:&lt;epsilon&gt;/1</text>
</g>
<!-- 2 -->
<g id="node3" class="node"><title>2</title>
<ellipse fill="none" stroke="black" cx="188" cy="-18" rx="18" ry="18"/>
<text text-anchor="middle" x="188" y="-14.3" font-family="Times,serif" font-size="14.00">2</text>
</g>
<!-- 0&#45;&gt;2 -->
<g id="edge2" class="edge"><title>0&#45;&gt;2</title>
<path fill="none" stroke="black" d="M33.5196,-62.1946C38.8457,-58.9209 45.0336,-55.4794 51,-53 87.3722,-37.8851 132,-27.9086 159.978,-22.6046"/>
<polygon fill="black" stroke="black" points="160.974,-25.9805 170.181,-20.7383 159.715,-19.0947 160.974,-25.9805"/>
<text text-anchor="middle" x="103" y="-56.8" font-family="Times,serif" font-size="14.00">&lt;epsilon&gt;:b/1</text>
</g>
<!-- 3 -->
<g id="node4" class="node"><title>3</title>
<ellipse fill="none" stroke="black" cx="239" cy="-124" rx="18" ry="18"/>
<text text-anchor="middle" x="239" y="-120.3" font-family="Times,serif" font-size="14.00">3</text>
</g>
<!-- 0&#45;&gt;3 -->
<g id="edge3" class="edge"><title>0&#45;&gt;3</title>
<path fill="none" stroke="black" d="M33.1001,-81.8662C38.4861,-85.2259 44.8212,-88.7078 51,-91 105.575,-111.246 173.827,-119.263 210.926,-122.288"/>
<polygon fill="black" stroke="black" points="210.724,-125.783 220.959,-123.045 211.25,-118.802 210.724,-125.783"/>
<text text-anchor="middle" x="103" y="-118.8" font-family="Times,serif" font-size="14.00">a:b/1</text>
</g>
<!-- 9 -->
<g id="node5" class="node"><title>9</title>
<ellipse fill="none" stroke="black" cx="290" cy="-72" rx="18" ry="18"/>
<text text-anchor="middle" x="290" y="-68.3" font-family="Times,serif" font-size="14.00">9</text>
</g>
<!-- 1&#45;&gt;9 -->
<g id="edge4" class="edge"><title>1&#45;&gt;9</title>
<path fill="none" stroke="black" d="M206.419,-72C221.618,-72 243.933,-72 261.536,-72"/>
<polygon fill="black" stroke="black" points="261.781,-75.5001 271.781,-72 261.781,-68.5001 261.781,-75.5001"/>
<text text-anchor="middle" x="239" y="-75.8" font-family="Times,serif" font-size="14.00">b:b</text>
</g>
<!-- 7 -->
<g id="node6" class="node"><title>7</title>
<ellipse fill="none" stroke="black" cx="290" cy="-18" rx="18" ry="18"/>
<text text-anchor="middle" x="290" y="-14.3" font-family="Times,serif" font-size="14.00">7</text>
</g>
<!-- 2&#45;&gt;7 -->
<g id="edge5" class="edge"><title>2&#45;&gt;7</title>
<path fill="none" stroke="black" d="M206.419,-18C221.618,-18 243.933,-18 261.536,-18"/>
<polygon fill="black" stroke="black" points="261.781,-21.5001 271.781,-18 261.781,-14.5001 261.781,-21.5001"/>
<text text-anchor="middle" x="239" y="-21.8" font-family="Times,serif" font-size="14.00">a:a</text>
</g>
<!-- 4 -->
<g id="node7" class="node"><title>4</title>
<ellipse fill="none" stroke="black" cx="460" cy="-77" rx="18" ry="18"/>
<text text-anchor="middle" x="460" y="-73.3" font-family="Times,serif" font-size="14.00">4</text>
</g>
<!-- 3&#45;&gt;4 -->
<g id="edge6" class="edge"><title>3&#45;&gt;4</title>
<path fill="none" stroke="black" d="M256.994,-123.388C290.435,-121.749 366.768,-115.841 427,-95 429.824,-94.023 432.686,-92.8003 435.479,-91.4546"/>
<polygon fill="black" stroke="black" points="437.392,-94.4 444.544,-86.5841 434.079,-88.2336 437.392,-94.4"/>
<text text-anchor="middle" x="290" y="-125.8" font-family="Times,serif" font-size="14.00">b:a/1</text>
</g>
<!-- 9&#45;&gt;4 -->
<g id="edge12" class="edge"><title>9&#45;&gt;4</title>
<path fill="none" stroke="black" d="M308.033,-72.5069C337.088,-73.3717 396.477,-75.1392 431.482,-76.181"/>
<polygon fill="black" stroke="black" points="431.822,-79.6926 441.922,-76.4917 432.03,-72.6957 431.822,-79.6926"/>
<text text-anchor="middle" x="375" y="-79.8" font-family="Times,serif" font-size="14.00">&lt;epsilon&gt;:a/1</text>
</g>
<!-- 7&#45;&gt;4 -->
<g id="edge9" class="edge"><title>7&#45;&gt;4</title>
<path fill="none" stroke="black" d="M307.802,-21.4653C339.262,-28.0941 405.792,-42.8154 427,-53 430.697,-54.7755 434.392,-57.0092 437.888,-59.3953"/>
<polygon fill="black" stroke="black" points="435.945,-62.3117 446.06,-65.4658 440.12,-56.6927 435.945,-62.3117"/>
<text text-anchor="middle" x="375" y="-56.8" font-family="Times,serif" font-size="14.00">b:&lt;epsilon&gt;/1</text>
</g>
<!-- 8 -->
<g id="node10" class="node"><title>8</title>
<ellipse fill="none" stroke="black" cx="460" cy="-18" rx="18" ry="18"/>
<text text-anchor="middle" x="460" y="-14.3" font-family="Times,serif" font-size="14.00">8</text>
</g>
<!-- 7&#45;&gt;8 -->
<g id="edge10" class="edge"><title>7&#45;&gt;8</title>
<path fill="none" stroke="black" d="M307.055,-11.9409C312.085,-10.3266 317.706,-8.80786 323,-8 368.693,-1.02672 381.307,-1.02672 427,-8 429.068,-8.31557 431.186,-8.73961 433.299,-9.23544"/>
<polygon fill="black" stroke="black" points="432.372,-12.6104 442.945,-11.9409 434.262,-5.87048 432.372,-12.6104"/>
<text text-anchor="middle" x="375" y="-11.8" font-family="Times,serif" font-size="14.00">b:b</text>
</g>
<!-- 5 -->
<g id="node8" class="node"><title>5</title>
<ellipse fill="none" stroke="black" cx="630" cy="-49" rx="18" ry="18"/>
<text text-anchor="middle" x="630" y="-45.3" font-family="Times,serif" font-size="14.00">5</text>
</g>
<!-- 4&#45;&gt;5 -->
<g id="edge7" class="edge"><title>4&#45;&gt;5</title>
<path fill="none" stroke="black" d="M478.033,-74.1611C507.214,-69.2976 566.992,-59.3347 601.936,-53.5107"/>
<polygon fill="black" stroke="black" points="602.633,-56.9428 611.922,-51.8464 601.482,-50.0381 602.633,-56.9428"/>
<text text-anchor="middle" x="545" y="-74.8" font-family="Times,serif" font-size="14.00">b:b</text>
</g>
<!-- 6 -->
<g id="node9" class="node"><title>6</title>
<ellipse fill="none" stroke="black" cx="722" cy="-49" rx="18" ry="18"/>
<ellipse fill="none" stroke="black" cx="722" cy="-49" rx="22" ry="22"/>
<text text-anchor="middle" x="722" y="-45.3" font-family="Times,serif" font-size="14.00">6</text>
</g>
<!-- 5&#45;&gt;6 -->
<g id="edge8" class="edge"><title>5&#45;&gt;6</title>
<path fill="none" stroke="black" d="M648.353,-49C660.076,-49 675.886,-49 689.763,-49"/>
<polygon fill="black" stroke="black" points="689.899,-52.5001 699.899,-49 689.899,-45.5001 689.899,-52.5001"/>
<text text-anchor="middle" x="674" y="-52.8" font-family="Times,serif" font-size="14.00">a:a</text>
</g>
<!-- 8&#45;&gt;5 -->
<g id="edge11" class="edge"><title>8&#45;&gt;5</title>
<path fill="none" stroke="black" d="M478.055,-18.5616C504.121,-19.7686 555.244,-23.5163 597,-35 599.456,-35.6754 601.967,-36.5059 604.449,-37.4227"/>
<polygon fill="black" stroke="black" points="603.124,-40.6618 613.703,-41.2387 605.792,-34.1905 603.124,-40.6618"/>
<text text-anchor="middle" x="545" y="-39.8" font-family="Times,serif" font-size="14.00">b:&lt;epsilon&gt;/1</text>
</g>
</g>
</svg>
